# xmcd CD database file
#
# Track frame offsets:
#	150
#	16287
#	36007
#	49405
#	70405
#	91630
#	109860
#	128445
#	147527
#	161717
#	178530
#	197017
#	214127
#	230287
#	246425
#
# Disc length: 3552 seconds
#
# Revision: 0
# Processed by: cddbd v1.5.2PL0 Copyright (c) Steve Scherf et al.
# Submitted via: CDex 1.70beta2
#
DISCID=d10dde0f
DTITLE=Karrin Allyson - Footprints
DYEAR=1900
DGENRE=Jazz
TTITLE0=Something Worth Waiting For (Con Alma)
TTITLE1=All You Need To Say (Never Say Yes)
TTITLE2=Lightning (Lazy Bird)
TTITLE3=A Long Way To Go (Equinox)
TTITLE4=Strollin’ 
TTITLE5=I Found The Turnaround (The Turnaround)
TTITLE6=Follow The Footprints (Footprints)
TTITLE7=Life Is A Groove (Jordu)
TTITLE8=A Tree And Me 
TTITLE9=I Can’t Say (Teaneck)
TTITLE10=But I Was Cool 
TTITLE11=Give Me A Break (Unit 7)
TTITLE12=Everybody’s Boppin’
TTITLE13=The Duke
TTITLE14=Airegin
EXTD=
EXTT0=
EXTT1=
EXTT2=
EXTT3=
EXTT4=
EXTT5=
EXTT6=
EXTT7=
EXTT8=
EXTT9=
EXTT10=
EXTT11=
EXTT12=
EXTT13=
EXTT14=
PLAYORDER=
